<svg xmlns="http://www.w3.org/2000/svg" xmlns:xlink="http://www.w3.org/1999/xlink" id="Layer_1" width="414" height="755" x="0" y="0" baseProfile="tiny" version="1.2" viewBox="0 0 414 755" xml:space="preserve"><rect width="414" height="755" fill="#EE6650"/><g><circle cx="207" cy="128" r="42.857" fill="none" stroke="#FFF" stroke-miterlimit="10"/><path fill="#FFF" stroke="#FFF" stroke-miterlimit="10" d="M181.286,85.143h51.428 M232.714,83 c-1.184,0-2.143,0.959-2.143,2.143s0.959,2.143,2.143,2.143s2.144-0.959,2.144-2.143S233.897,83,232.714,83z M181.286,83 c-1.184,0-2.143,0.959-2.143,2.143s0.959,2.143,2.143,2.143s2.143-0.959,2.143-2.143S182.469,83,181.286,83z M209.143,83h-4.285 v4.286h4.285V83z"/><path fill="#FFF" stroke="#FFF" stroke-miterlimit="10" d="M181.286,170.857h51.428 M232.714,168.714 c-1.184,0-2.143,0.959-2.143,2.143S231.53,173,232.714,173s2.144-0.959,2.144-2.143S233.897,168.714,232.714,168.714z M181.286,168.714c-1.184,0-2.143,0.959-2.143,2.143s0.959,2.143,2.143,2.143s2.143-0.959,2.143-2.143 S182.469,168.714,181.286,168.714z M209.143,168.714h-4.285V173h4.285V168.714z"/><path fill="#FFF" stroke="#FFF" stroke-miterlimit="10" d="M249.857,102.286v51.429 M252,153.714 c0-1.184-0.959-2.143-2.143-2.143s-2.144,0.959-2.144,2.143s0.96,2.143,2.144,2.143S252,154.898,252,153.714z M252,102.286 c0-1.184-0.959-2.143-2.143-2.143s-2.144,0.959-2.144,2.143s0.96,2.143,2.144,2.143S252,103.469,252,102.286z M252,130.143v-4.286 h-4.286v4.286H252z"/><path fill="#FFF" stroke="#FFF" stroke-miterlimit="10" d="M164.143,102.286v51.429 M166.286,153.714 c0-1.184-0.959-2.143-2.143-2.143S162,152.531,162,153.714s0.959,2.143,2.143,2.143S166.286,154.898,166.286,153.714z M166.286,102.286c0-1.184-0.959-2.143-2.143-2.143S162,101.102,162,102.286s0.959,2.143,2.143,2.143 S166.286,103.469,166.286,102.286z M166.286,130.143v-4.286H162v4.286H166.286z"/></g><g><path fill="none" stroke="#FFF" stroke-miterlimit="10" stroke-width="1.25" d="M276.691,365l-5.737-29.957h-43.479L211.46,365 M227.476,335.043h43.479L259.704,275L227.476,335.043z"/><g><line x1="159.809" x2="222.809" y1="291.5" y2="291.5" fill="none" stroke="#FFF" stroke-miterlimit="10" stroke-width="1.25"/><line x1="131.309" x2="194.31" y1="339.5" y2="339.5" fill="none" stroke="#FFF" stroke-miterlimit="10" stroke-width="1.25"/><line x1="145.559" x2="208.56" y1="315.5" y2="315.5" fill="none" stroke="#FFF" stroke-miterlimit="10" stroke-width="1.25"/></g></g><g><polyline fill="none" stroke="#FFF" stroke-miterlimit="10" stroke-width="1.25" points="237.828 469.143 237.828 493.401 207 530.599 207 554.857 207 530.599 176.171 493.401 176.171 469.143"/><circle cx="176.171" cy="469.143" r="2.143" fill="#FFF" stroke="#FFF" stroke-miterlimit="10"/><circle cx="237.829" cy="469.143" r="2.143" fill="#FFF" stroke="#FFF" stroke-miterlimit="10"/><circle cx="207" cy="554.857" r="2.143" fill="#FFF" stroke="#FFF" stroke-miterlimit="10"/></g></svg>